<?xml version="1.0" encoding="UTF-8" standalone="no"?>
<svg
   xmlns:dc="http://purl.org/dc/elements/1.1/"
   xmlns:cc="http://creativecommons.org/ns#"
   xmlns:rdf="http://www.w3.org/1999/02/22-rdf-syntax-ns#"
   xmlns:svg="http://www.w3.org/2000/svg"
   xmlns="http://www.w3.org/2000/svg"
   xmlns:sodipodi="http://sodipodi.sourceforge.net/DTD/sodipodi-0.dtd"
   xmlns:inkscape="http://www.inkscape.org/namespaces/inkscape"
   width="52px"
   height="52px"
   viewBox="0 0 52 52"
   version="1.1"
   id="svg19"
   sodipodi:docname="flameRed.svg"
   inkscape:version="0.92.2 5c3e80d, 2017-08-06">
  <metadata
     id="metadata23">
    <rdf:RDF>
      <cc:Work
         rdf:about="">
        <dc:format>image/svg+xml</dc:format>
        <dc:type
           rdf:resource="http://purl.org/dc/dcmitype/StillImage" />
      </cc:Work>
    </rdf:RDF>
  </metadata>
  <sodipodi:namedview
     pagecolor="#ffffff"
     bordercolor="#666666"
     borderopacity="1"
     objecttolerance="10"
     gridtolerance="10"
     guidetolerance="10"
     inkscape:pageopacity="0"
     inkscape:pageshadow="2"
     inkscape:window-width="1920"
     inkscape:window-height="1051"
     id="namedview21"
     showgrid="false"
     inkscape:zoom="4.5384615"
     inkscape:cx="-5.8389831"
     inkscape:cy="26"
     inkscape:window-x="0"
     inkscape:window-y="0"
     inkscape:window-maximized="1"
     inkscape:current-layer="svg19" />
  <!-- Generator: Sketch 42 (36781) - http://www.bohemiancoding.com/sketch -->
  <title
     id="title2">Group 2</title>
  <desc
     id="desc4">Created with Sketch.</desc>
  <defs
     id="defs6" />
  <g
     id="Test-project"
     stroke="none"
     stroke-width="1"
     fill="none"
     fill-rule="evenodd">
    <g
       id="Green"
       transform="translate(-11.000000, -83.000000)">
      <g
         id="Group-2"
         transform="translate(11.000000, 83.000000)">
        <circle
           id="Oval-2"
           fill="#FFFFFF"
           cx="26"
           cy="26"
           r="26" />
        <g
           id="Fire-Element"
           transform="translate(11.000000, 6.000000)"
           fill-rule="nonzero">
          <g
             id="Group">
            <path
               d="M30,23 C30,31.395 23.394,38 14.999,38 C6.604,38 0,31.395 0,23 C0,14.605 13.479,7.6 11.959,0 C15,0 30,10.841 30,23 Z"
               id="Shape"
               fill="#4CAF50" />
            <path
               d="M24,27 C24,19.401 15,12 15,12 C15,18.08 6,20.921 6,27 C6,32.036 9.963,36 15,36 C20.037,36 24,32.036 24,27 Z"
               id="path10"
               fill="#FF5722" />
            <path
               d="M9.999,30.406 C10,27 15,25.051 15,22 C15,22 19.999,25.832 19.999,30.406 C19.999,32.931 17.762,34.98 14.999,34.98 C12.236,34.98 9.998,32.932 9.999,30.406 Z"
               id="path12"
               fill="#FFC107" />
          </g>
        </g>
      </g>
    </g>
  </g>
  <path
     style="stroke-width:0.22033899"
     d="m 21.813559,43.286992 c -2.612712,-0.779103 -4.314404,-1.799327 -6.291812,-3.772166 -2.915677,-2.908935 -4.32946,-6.243915 -4.346848,-10.253809 -0.01329,-3.065765 1.097604,-5.448768 4.468177,-9.584746 4.837515,-5.93604 5.598042,-6.956786 6.431998,-8.632736 0.714669,-1.4362254 0.919429,-2.1186183 1.008262,-3.3601691 0.06131,-0.8568682 0.199775,-1.5579422 0.307703,-1.5579422 0.497081,0 3.352054,1.631523 5.023147,2.8705624 5.811013,4.3086039 10.545979,10.6453699 11.931942,15.9684209 0.581104,2.231833 0.630822,5.550264 0.115131,7.684467 -1.217339,5.038014 -5.379686,9.281458 -10.494328,10.698798 -2.322687,0.643649 -5.880207,0.617173 -8.153372,-0.06068 z m 7.971779,-2.06187 c 2.031309,-0.951144 3.322921,-2.208575 4.300614,-4.1868 0.682713,-1.38138 0.822772,-1.915814 0.903087,-3.446016 0.165006,-3.143759 -1.041333,-6.412641 -3.702483,-10.032829 -1.389989,-1.890921 -4.978456,-5.696955 -5.180655,-5.494757 -0.06195,0.06195 -0.258583,0.672946 -0.436955,1.357762 -0.440537,1.691336 -1.15838,2.767049 -3.404156,5.101247 -2.897482,3.011562 -3.958422,4.279549 -4.600694,5.498537 -0.514609,0.976692 -0.585836,1.365727 -0.586766,3.204853 -9.48e-4,1.890554 0.06589,2.234519 0.690411,3.552609 1.16526,2.459353 2.811522,3.925817 5.475145,4.877177 0.827305,0.295485 1.602352,0.377302 3.087622,0.325941 1.674557,-0.05791 2.212009,-0.175785 3.45483,-0.757724 z"
     id="path25"
     inkscape:connector-curvature="0" />
  <path
     style="stroke-width:0.22033899;fill:#d40000"
     d="M 23.832139,43.576989 C 20.495772,43.118693 18.16506,41.930326 15.64395,39.40205 c -2.755704,-2.763535 -4.01957,-5.400559 -4.321033,-9.015722 -0.176219,-2.113236 0.162782,-3.850199 1.144531,-5.864295 0.705558,-1.447482 1.537474,-2.579251 6.801159,-9.252541 2.448716,-3.104479 3.557979,-5.200215 3.852237,-7.2780506 0.114668,-0.8097016 0.266224,-1.5299217 0.336791,-1.6004891 0.07057,-0.070567 0.597104,0.097945 1.170081,0.3744722 4.93345,2.380956 11.391344,8.9280355 14.003298,14.1966855 1.240127,2.501498 1.635915,3.693314 1.94079,5.844202 0.643088,4.537003 -0.626907,8.790942 -3.589858,12.024481 -3.362375,3.669439 -8.221318,5.423192 -13.149807,4.746196 z m 6.023793,-2.30456 c 1.8305,-0.880601 3.425104,-2.452847 4.31119,-4.25074 0.602786,-1.223076 0.746885,-1.802285 0.827386,-3.325707 0.183565,-3.473873 -1.015657,-6.697289 -3.904234,-10.494287 -1.11671,-1.467901 -4.615704,-5.177966 -4.883384,-5.177966 -0.09403,0 -0.383532,0.638775 -0.643341,1.419501 -0.619968,1.863006 -1.156712,2.61771 -4.24803,5.973073 -4.029168,4.373318 -4.468812,5.230939 -4.303907,8.395712 0.07595,1.457525 0.226828,2.067342 0.799143,3.229879 0.913338,1.855252 2.791154,3.621271 4.696661,4.417041 1.264702,0.528161 1.621999,0.577907 3.712923,0.516941 2.017916,-0.05884 2.482499,-0.148726 3.635593,-0.703447 z"
     id="path27"
     inkscape:connector-curvature="0" />
  <path
     style="opacity:0;fill:none;stroke-width:0.22033899;fill-opacity:0"
     d="m 22.490998,43.254462 c -4.94313,-1.075134 -9.725637,-5.894379 -10.778187,-10.86098 -0.633684,-2.990122 -0.293774,-5.738135 1.013041,-8.189971 0.36276,-0.680607 2.384234,-3.464955 4.492163,-6.187439 4.249693,-5.488664 5.466139,-7.505766 5.896331,-9.7772461 0.15711,-0.8295625 0.399262,-1.5519351 0.538116,-1.6052725 0.413505,-0.1588376 2.759927,1.1374815 4.68618,2.5889564 5.55522,4.1859842 10.648893,11.0545372 11.837486,15.9622362 0.507799,2.096709 0.513799,5.738389 0.01249,7.585777 -1.389832,5.12178 -5.420017,9.042139 -10.677838,10.386864 -1.950046,0.498737 -4.980392,0.540643 -7.019787,0.09707 z m 7.487214,-1.98546 c 1.61458,-0.806632 3.383723,-2.555535 4.182864,-4.135007 1.70146,-3.362877 1.013925,-7.881047 -1.871414,-12.298083 -1.319058,-2.019287 -5.547526,-6.812183 -6.009956,-6.812183 -0.157719,0 -0.494775,0.570127 -0.749014,1.266949 -0.66625,1.826066 -1.423367,2.906137 -4.208898,6.004237 -4.094806,4.554292 -4.556369,5.44875 -4.368188,8.465063 0.08435,1.352013 0.267313,2.131691 0.730787,3.114165 0.815848,1.729434 2.754287,3.657638 4.543135,4.51915 1.344365,0.647449 1.480948,0.668161 3.926709,0.595502 2.277474,-0.06766 2.664451,-0.140502 3.823975,-0.719793 z"
     id="path4528"
     inkscape:connector-curvature="0" />
</svg>
